<?xml version="1.0" encoding="utf-8"?>
<!-- Generator: Adobe Illustrator 19.0.0, SVG Export Plug-In . SVG Version: 6.00 Build 0)  -->
<svg version="1.1" id="Layer_1" xmlns="http://www.w3.org/2000/svg" xmlns:xlink="http://www.w3.org/1999/xlink" x="0px" y="0px"
	 viewBox="0 0 144 144" enable-background="new 0 0 144 144" xml:space="preserve">
<symbol  id="On_Page_Reference">
</symbol>
<use xlink:href="#On_Page_Reference"  width="-32766" height="-32766" id="XMLID_24_" x="16383" y="16383" transform="matrix(0.4506 0 0 -0.4506 23.3338 38.3328)" overflow="visible"/>
<g id="XMLID_29_">
	<path id="XMLID_72_" fill="#1B8D11" d="M114.5,96.3c0,4.7-19.9,8.5-44.3,8.5c-24.5,0-44.3-3.8-44.3-8.5c0-4.7,19.9-8.5,44.3-8.5
		C94.6,87.8,114.5,91.6,114.5,96.3z"/>
	<path id="XMLID_71_" fill="#1B8D11" d="M114.5,122.2c0,4.7-19.9,8.5-44.3,8.5c-24.5,0-44.3-3.8-44.3-8.5V98.8
		c0,4.7,19.9,8.5,44.3,8.5c24.5,0,44.3-3.8,44.3-8.5V122.2z"/>
	<path id="XMLID_70_" fill="#1B8D11" d="M114.5,60.2c0,4.7-19.9,8.5-44.3,8.5c-24.5,0-44.3-3.8-44.3-8.5c0-4.7,19.9-8.5,44.3-8.5
		C94.6,51.6,114.5,55.5,114.5,60.2z"/>
	<path id="XMLID_69_" fill="#FFFFFF" d="M114.5,52.4c0,4.7-19.9,8.5-44.3,8.5c-24.5,0-44.3-3.8-44.3-8.5V29c0,4.7,19.9,8.5,44.3,8.5
		c24.5,0,44.3-3.8,44.3-8.5V52.4z"/>
	<path id="XMLID_68_" fill="#1B8D11" d="M114.5,24c0,4.7-19.9,8.5-44.3,8.5c-24.5,0-44.3-3.8-44.3-8.5c0-4.7,19.9-8.5,44.3-8.5
		C94.6,15.5,114.5,19.3,114.5,24z"/>
	<path id="XMLID_66_" fill="#1B8D11" d="M114.5,50c0,4.7-19.9,8.5-44.3,8.5c-24.5,0-44.3-3.8-44.3-8.5V26.6c0,4.7,19.9,8.5,44.3,8.5
		c24.5,0,44.3-3.8,44.3-8.5V50z"/>
	<path id="XMLID_60_" fill="#FFFFFF" d="M114.5,88.5c0,4.7-19.9,8.5-44.3,8.5c-24.5,0-44.3-3.8-44.3-8.5V65.1
		c0,4.7,19.9,8.5,44.3,8.5c24.5,0,44.3-3.8,44.3-8.5V88.5z"/>
	<path id="XMLID_57_" fill="#1B8D11" d="M114.5,86.1c0,4.7-19.9,8.5-44.3,8.5c-24.5,0-44.3-3.8-44.3-8.5V62.7
		c0,4.7,19.9,8.5,44.3,8.5c24.5,0,44.3-3.8,44.3-8.5V86.1z"/>
</g>
</svg>
