<?xml version="1.0" encoding="utf-8"?>
<!-- Generator: Adobe Illustrator 19.0.0, SVG Export Plug-In . SVG Version: 6.00 Build 0)  -->
<svg version="1.1" id="Layer_1" xmlns="http://www.w3.org/2000/svg" xmlns:xlink="http://www.w3.org/1999/xlink" x="0px" y="0px"
	 viewBox="0 0 144 144" enable-background="new 0 0 144 144" xml:space="preserve">
<symbol  id="On_Page_Reference">
</symbol>
<use xlink:href="#On_Page_Reference"  width="-32766" height="-32766" id="XMLID_24_" x="16383" y="16383" transform="matrix(0.4506 0 0 -0.4506 23.3338 38.3328)" overflow="visible"/>
<circle id="XMLID_20_" fill="#1B8D11" stroke="#231F20" cx="72" cy="73.8" r="61.8"/>
<path id="XMLID_34_" fill-rule="evenodd" clip-rule="evenodd" fill="#FFFFFF" d="M56.4,61.7h6.1v6.1h-6.1V61.7L56.4,61.7z
	 M56.4,71.6h6.1v6.1h-6.1V71.6L56.4,71.6z M56.4,81.4h6.1v6.1h-6.1V81.4L56.4,81.4z M66,61.7h21.7v6.1H66V61.7L66,61.7z M66,71.6
	h21.7v6.1H66V71.6L66,71.6z M66,81.4h21.7v6.1H66V81.4L66,81.4z M49.4,45.3c-2.1,0-3.9,1.8-3.9,3.9v58.6c0,2.1,1.8,3.9,3.9,3.9h45.3
	c2.1,0,3.9-1.8,3.9-3.9V49.2c0-2.1-1.8-3.9-3.9-3.9h-7v6.5h5.5v43.9h-9.3v9.3h-33V51.9h5.5v-6.5H49.4L49.4,45.3z M72.1,39.6
	c-1.2,0-2.2,1-2.2,2.2c0,1.2,1,2.2,2.2,2.2c1.2,0,2.2-1,2.2-2.2C74.3,40.6,73.3,39.6,72.1,39.6L72.1,39.6z M59.9,41.8h6.3
	c0-3.2,2.6-5.9,5.9-5.9c3.2,0,5.9,2.6,5.9,5.9h6.3c0.8,0,1.5,0.7,1.5,1.5v10.1c0,0.8-0.7,1.5-1.5,1.5H59.9c-0.8,0-1.5-0.7-1.5-1.5
	V43.3C58.4,42.5,59.1,41.8,59.9,41.8L59.9,41.8z"/>
</svg>
