<?xml version="1.0" encoding="utf-8"?>
<!-- Generator: Adobe Illustrator 19.0.0, SVG Export Plug-In . SVG Version: 6.00 Build 0)  -->
<svg version="1.1" id="Layer_1" xmlns="http://www.w3.org/2000/svg" xmlns:xlink="http://www.w3.org/1999/xlink" x="0px" y="0px"
	 viewBox="0 0 144 144" enable-background="new 0 0 144 144" xml:space="preserve">
<symbol  id="On_Page_Reference">
</symbol>
<use xlink:href="#On_Page_Reference"  width="-32766" height="-32766" id="XMLID_24_" x="16383" y="16383" transform="matrix(0.4506 0 0 -0.4506 23.3338 38.3328)" overflow="visible"/>
<circle id="XMLID_20_" fill="#1B8D11" stroke="#231F20" cx="72" cy="73.8" r="61.8"/>
<g id="XMLID_34_">
	<path id="XMLID_56_" fill="#FFFFFF" stroke="#231F20" d="M72,22c-28.9,0-52.3,23.4-52.3,52.3c0,28.9,23.4,52.3,52.3,52.3
		c28.9,0,52.3-23.4,52.3-52.3C124.3,45.4,100.9,22,72,22z M105.4,104.6l-4.5-4.5l-3.2,3.2l4.5,4.5c-7.5,6.8-17.2,11.1-28,11.6V113
		h-4.5v6.3c-10.7-0.5-20.5-4.8-28-11.6l4.5-4.5l-3.2-3.2l-4.5,4.5c-6.8-7.5-11.1-17.2-11.6-28h6.3l0-4.5H27
		c0.5-10.8,4.8-20.5,11.6-28l4.5,4.5l3.2-3.2l-4.5-4.5c7.5-6.8,17.2-11.1,28-11.6v6.3h4.5v-6.3c10.7,0.5,20.5,4.8,28,11.6l-4.5,4.5
		l3.2,3.2l4.5-4.5c6.8,7.5,11.1,17.2,11.6,28h-6.3l0,4.5h6.3C116.5,87.3,112.2,97.1,105.4,104.6z"/>
	<path id="XMLID_37_" fill="#FFFFFF" d="M76.2,77.2c0,1.8-1.9,3.3-4.2,3.3c-2.3,0-4.2-1.5-4.2-3.3V48.6c0-1.8,1.9-3.3,4.2-3.3
		c2.3,0,4.2,1.5,4.2,3.3V77.2z"/>
	<path id="XMLID_36_" fill="#FFFFFF" d="M73.9,81.6c-2,1.1-4.6,0.4-5.7-1.7c-1.1-2-0.4-4.6,1.7-5.7L88.7,64c2-1.1,4.6-0.4,5.7,1.7
		c1.1,2,0.4,4.5-1.7,5.7L73.9,81.6z"/>
</g>
</svg>
